<mxfile host="65bd71144e">
    <diagram id="G_rRwB2FEiA704Qm6xKi" name="Page-1">
        <mxGraphModel dx="1779" dy="1087" grid="1" gridSize="10" guides="1" tooltips="1" connect="1" arrows="1" fold="1" page="0" pageScale="1" pageWidth="850" pageHeight="1100" math="0" shadow="0">
            <root>
                <mxCell id="0"/>
                <mxCell id="1" parent="0"/>
                <mxCell id="6" style="edgeStyle=none;html=1;fontFamily=Courier New;endArrow=none;endFill=0;" parent="1" source="3" target="4" edge="1">
                    <mxGeometry relative="1" as="geometry"/>
                </mxCell>
                <mxCell id="7" style="edgeStyle=none;html=1;fontFamily=Courier New;endArrow=none;endFill=0;" parent="1" source="3" target="5" edge="1">
                    <mxGeometry relative="1" as="geometry"/>
                </mxCell>
                <mxCell id="9" value="" style="edgeStyle=none;html=1;fontFamily=Courier New;endArrow=none;endFill=0;" parent="1" source="3" target="8" edge="1">
                    <mxGeometry relative="1" as="geometry"/>
                </mxCell>
                <mxCell id="13" style="edgeStyle=none;html=1;fontFamily=Courier New;endArrow=none;endFill=0;" parent="1" source="4" target="12" edge="1">
                    <mxGeometry relative="1" as="geometry"/>
                </mxCell>
                <mxCell id="3" value="Create&lt;br&gt;Client Table" style="shape=step;perimeter=stepPerimeter;whiteSpace=wrap;html=1;fixedSize=1;fontFamily=Courier New;align=center;size=20;" parent="1" vertex="1">
                    <mxGeometry x="-40" y="280" width="160" height="80" as="geometry"/>
                </mxCell>
                <mxCell id="4" value="CREATE TABLE clients (&lt;br&gt;&amp;nbsp; &amp;nbsp; id INT IDENTITY(1,1) PRIMARY KEY,&lt;br&gt;&amp;nbsp; &amp;nbsp;&amp;nbsp;name VARCHAR(128) UNIQUE NOT NULL,&lt;br&gt;&amp;nbsp; &amp;nbsp;&amp;nbsp;location VARCHAR(4) NOT NULL&lt;br&gt;);" style="rounded=0;whiteSpace=wrap;html=1;align=left;fontFamily=Courier New;verticalAlign=middle;fillColor=#008a00;fontColor=#ffffff;strokeColor=#005700;" parent="1" vertex="1">
                    <mxGeometry x="-120" y="440" width="320" height="320" as="geometry"/>
                </mxCell>
                <mxCell id="5" value="DROP TABLE dbo.clients;" style="rounded=0;whiteSpace=wrap;html=1;align=left;fontFamily=Courier New;verticalAlign=middle;fillColor=#a20025;fontColor=#ffffff;strokeColor=#6F0000;" parent="1" vertex="1">
                    <mxGeometry x="-120" y="-120" width="320" height="320" as="geometry"/>
                </mxCell>
                <mxCell id="17" style="edgeStyle=none;html=1;fontFamily=Courier New;endArrow=none;endFill=0;" parent="1" source="8" target="15" edge="1">
                    <mxGeometry relative="1" as="geometry"/>
                </mxCell>
                <mxCell id="19" style="edgeStyle=none;html=1;fontFamily=Courier New;endArrow=none;endFill=0;" parent="1" source="8" target="18" edge="1">
                    <mxGeometry relative="1" as="geometry"/>
                </mxCell>
                <mxCell id="8" value="Create&lt;br&gt;Request Table" style="shape=step;perimeter=stepPerimeter;whiteSpace=wrap;html=1;fixedSize=1;fontFamily=Courier New;" parent="1" vertex="1">
                    <mxGeometry x="360" y="280" width="160" height="80" as="geometry"/>
                </mxCell>
                <mxCell id="12" value="INSERT INTO dbo.clients VALUES&lt;br&gt;&amp;nbsp; &amp;nbsp; ('testName1','LOC1'),&lt;br&gt;&amp;nbsp; &amp;nbsp; ('testName2','LOC2');&lt;br&gt;&lt;br&gt;SELECT * FROM dbo.clients;" style="rounded=0;whiteSpace=wrap;html=1;align=left;fontFamily=Courier New;verticalAlign=middle;fillColor=#0050ef;fontColor=#ffffff;strokeColor=#001DBC;" parent="1" vertex="1">
                    <mxGeometry x="-120" y="840" width="320" height="320" as="geometry"/>
                </mxCell>
                <mxCell id="14" style="edgeStyle=none;html=1;fontFamily=Courier New;endArrow=none;endFill=0;" parent="1" source="15" target="16" edge="1">
                    <mxGeometry relative="1" as="geometry"/>
                </mxCell>
                <mxCell id="15" value="&lt;div&gt;CREATE TABLE requests (&lt;/div&gt;&lt;div&gt;&lt;span&gt;&lt;/span&gt;&amp;nbsp; &amp;nbsp; id INT IDENTITY(1,1) PRIMARY KEY,&lt;/div&gt;&lt;div&gt;&lt;span&gt;&lt;/span&gt;&amp;nbsp; &amp;nbsp; request_date DATETIME DEFAULT GETDATE(),&lt;/div&gt;&lt;div&gt;&lt;span&gt;&lt;/span&gt;&amp;nbsp; &amp;nbsp; resolved BIT NOT NULL DEFAULT 0&lt;/div&gt;&lt;div&gt;);&lt;/div&gt;" style="rounded=0;whiteSpace=wrap;html=1;align=left;fontFamily=Courier New;verticalAlign=middle;fillColor=#008a00;fontColor=#ffffff;strokeColor=#005700;" parent="1" vertex="1">
                    <mxGeometry x="280" y="440" width="320" height="320" as="geometry"/>
                </mxCell>
                <mxCell id="16" value="&lt;div&gt;INSERT INTO dbo.requests(resolved) VALUES&lt;/div&gt;&lt;div&gt;&lt;span&gt;&lt;/span&gt;&amp;nbsp; &amp;nbsp; (0),&lt;/div&gt;&lt;div&gt;&lt;span&gt;&lt;/span&gt;&amp;nbsp; &amp;nbsp; (0);&lt;/div&gt;&lt;div&gt;&lt;br&gt;&lt;/div&gt;&lt;div&gt;SELECT * FROM dbo.requests;&lt;/div&gt;" style="rounded=0;whiteSpace=wrap;html=1;align=left;fontFamily=Courier New;verticalAlign=middle;fillColor=#0050ef;fontColor=#ffffff;strokeColor=#001DBC;" parent="1" vertex="1">
                    <mxGeometry x="280" y="840" width="320" height="320" as="geometry"/>
                </mxCell>
                <mxCell id="18" value="DROP TABLE dbo.requests;" style="rounded=0;whiteSpace=wrap;html=1;align=left;fontFamily=Courier New;verticalAlign=middle;fillColor=#a20025;fontColor=#ffffff;strokeColor=#6F0000;" parent="1" vertex="1">
                    <mxGeometry x="280" y="-120" width="320" height="320" as="geometry"/>
                </mxCell>
                <mxCell id="20" style="edgeStyle=none;html=1;fontFamily=Courier New;endArrow=none;endFill=0;" parent="1" source="22" target="24" edge="1">
                    <mxGeometry relative="1" as="geometry"/>
                </mxCell>
                <mxCell id="21" style="edgeStyle=none;html=1;fontFamily=Courier New;endArrow=none;endFill=0;" parent="1" source="22" target="26" edge="1">
                    <mxGeometry relative="1" as="geometry"/>
                </mxCell>
                <mxCell id="27" style="edgeStyle=none;html=1;fontFamily=Courier New;endArrow=none;endFill=0;" parent="1" source="22" target="8" edge="1">
                    <mxGeometry relative="1" as="geometry"/>
                </mxCell>
                <mxCell id="35" style="edgeStyle=none;html=1;fontFamily=Courier New;endArrow=none;endFill=0;" parent="1" source="22" target="30" edge="1">
                    <mxGeometry relative="1" as="geometry"/>
                </mxCell>
                <mxCell id="22" value="FK Request Table&lt;br&gt;to Client Table" style="shape=step;perimeter=stepPerimeter;whiteSpace=wrap;html=1;fixedSize=1;fontFamily=Courier New;" parent="1" vertex="1">
                    <mxGeometry x="760" y="280" width="160" height="80" as="geometry"/>
                </mxCell>
                <mxCell id="23" style="edgeStyle=none;html=1;fontFamily=Courier New;endArrow=none;endFill=0;" parent="1" source="24" target="25" edge="1">
                    <mxGeometry relative="1" as="geometry"/>
                </mxCell>
                <mxCell id="24" value="&lt;div&gt;ALTER TABLE dbo.requests&lt;/div&gt;&lt;div&gt;&amp;nbsp; &amp;nbsp; ADD client_id INT NOT NULL;&lt;/div&gt;&lt;div&gt;&lt;br&gt;&lt;/div&gt;&lt;div&gt;ALTER TABLE dbo.requests&lt;/div&gt;&lt;div&gt;&amp;nbsp; &amp;nbsp; ADD CONSTRAINT fk_requests_clients&lt;/div&gt;&lt;div&gt;&amp;nbsp; &amp;nbsp; FOREIGN KEY (client_id)&amp;nbsp;&lt;/div&gt;&lt;div&gt;&amp;nbsp; &amp;nbsp; &amp;nbsp; &amp;nbsp; REFERENCES dbo.clients(id)&lt;/div&gt;&lt;div&gt;&amp;nbsp; &amp;nbsp; &amp;nbsp; &amp;nbsp; ON DELETE CASCADE&lt;/div&gt;&lt;div&gt;&amp;nbsp; &amp;nbsp; &amp;nbsp; &amp;nbsp; ON UPDATE CASCADE;&lt;/div&gt;" style="rounded=0;whiteSpace=wrap;html=1;align=left;fontFamily=Courier New;verticalAlign=middle;fillColor=#008a00;fontColor=#ffffff;strokeColor=#005700;" parent="1" vertex="1">
                    <mxGeometry x="680" y="440" width="320" height="320" as="geometry"/>
                </mxCell>
                <mxCell id="25" value="&lt;div&gt;INSERT INTO dbo.clients VALUES&lt;/div&gt;&lt;div&gt;&amp;nbsp; &amp;nbsp; ('testName1','LOC1'),&lt;/div&gt;&lt;div&gt;&amp;nbsp; &amp;nbsp; ('testName2','LOC2'),&lt;/div&gt;&lt;div&gt;&amp;nbsp; &amp;nbsp; ('testName3','LOC3');&lt;/div&gt;&lt;div&gt;&lt;br&gt;&lt;/div&gt;&lt;div&gt;INSERT INTO dbo.requests(client_id) VALUES&lt;/div&gt;&lt;div&gt;&amp;nbsp; &amp;nbsp; (2),(1),(3);&lt;/div&gt;&lt;div&gt;&lt;br&gt;&lt;/div&gt;&lt;div&gt;SELECT * FROM dbo.clients;&lt;/div&gt;&lt;div&gt;SELECT * FROM dbo.requests;&lt;/div&gt;&lt;div&gt;&lt;br&gt;&lt;/div&gt;&lt;div&gt;DELETE FROM dbo.clients&lt;/div&gt;&lt;div&gt;&amp;nbsp; &amp;nbsp; WHERE id = 1;&lt;/div&gt;&lt;div&gt;&lt;br&gt;&lt;/div&gt;&lt;div&gt;&lt;span&gt;SELECT * FROM dbo.clients;&lt;/span&gt;&lt;br&gt;&lt;/div&gt;&lt;div&gt;SELECT * FROM dbo.requests;&lt;/div&gt;" style="rounded=0;whiteSpace=wrap;html=1;align=left;fontFamily=Courier New;verticalAlign=middle;fillColor=#0050ef;fontColor=#ffffff;strokeColor=#001DBC;" parent="1" vertex="1">
                    <mxGeometry x="680" y="840" width="320" height="320" as="geometry"/>
                </mxCell>
                <mxCell id="26" value="&lt;div&gt;ALTER TABLE dbo.requests&lt;/div&gt;&lt;div&gt;&amp;nbsp; &amp;nbsp; DROP CONSTRAINT fk_requests_clients;&lt;/div&gt;&lt;div&gt;&lt;br&gt;&lt;/div&gt;&lt;div&gt;ALTER TABLE dbo.requests&lt;/div&gt;&lt;div&gt;&amp;nbsp; &amp;nbsp; DROP COLUMN client_id;&lt;/div&gt;" style="rounded=0;whiteSpace=wrap;html=1;align=left;fontFamily=Courier New;verticalAlign=middle;fillColor=#a20025;fontColor=#ffffff;strokeColor=#6F0000;" parent="1" vertex="1">
                    <mxGeometry x="680" y="-120" width="320" height="320" as="geometry"/>
                </mxCell>
                <mxCell id="28" style="edgeStyle=none;html=1;fontFamily=Courier New;endArrow=none;endFill=0;" parent="1" source="30" target="32" edge="1">
                    <mxGeometry relative="1" as="geometry"/>
                </mxCell>
                <mxCell id="29" style="edgeStyle=none;html=1;fontFamily=Courier New;endArrow=none;endFill=0;" parent="1" source="30" target="34" edge="1">
                    <mxGeometry relative="1" as="geometry"/>
                </mxCell>
                <mxCell id="43" style="edgeStyle=none;html=1;endArrow=none;endFill=0;" edge="1" parent="1" source="30" target="38">
                    <mxGeometry relative="1" as="geometry"/>
                </mxCell>
                <mxCell id="30" value="Create Request&lt;br&gt;Details Table" style="shape=step;perimeter=stepPerimeter;whiteSpace=wrap;html=1;fixedSize=1;fontFamily=Courier New;" parent="1" vertex="1">
                    <mxGeometry x="1160" y="280" width="160" height="80" as="geometry"/>
                </mxCell>
                <mxCell id="31" style="edgeStyle=none;html=1;fontFamily=Courier New;endArrow=none;endFill=0;" parent="1" source="32" target="33" edge="1">
                    <mxGeometry relative="1" as="geometry"/>
                </mxCell>
                <mxCell id="32" value="&lt;div&gt;CREATE TABLE requests_details (&lt;/div&gt;&lt;div&gt;&lt;span&gt;&lt;/span&gt;&amp;nbsp; &amp;nbsp; id INT IDENTITY(1,1) PRIMARY KEY,&lt;/div&gt;&lt;div&gt;&lt;span&gt;&lt;/span&gt;&amp;nbsp; &amp;nbsp; request_source VARCHAR(128),&lt;/div&gt;&lt;div&gt;&lt;span&gt;&lt;/span&gt;&amp;nbsp; &amp;nbsp; request_description VARCHAR(8000),&lt;/div&gt;&lt;div&gt;&lt;span&gt;&lt;/span&gt;&amp;nbsp; &amp;nbsp; request_message VARCHAR(8000),&lt;/div&gt;&lt;div&gt;&lt;span&gt;&lt;/span&gt;&amp;nbsp; &amp;nbsp; request_resolution VARCHAR(8000),&lt;/div&gt;&lt;div&gt;&lt;span&gt;&lt;/span&gt;&amp;nbsp; &amp;nbsp; request_id INT UNIQUE NOT NULL,&lt;/div&gt;&lt;div&gt;&lt;span&gt;&lt;/span&gt;&amp;nbsp; &amp;nbsp; CONSTRAINT fk_requests_details_requests&lt;/div&gt;&lt;div&gt;&lt;span&gt;&lt;/span&gt;&amp;nbsp; &amp;nbsp; &amp;nbsp; &amp;nbsp; FOREIGN KEY (request_id)&lt;/div&gt;&lt;div&gt;&lt;span&gt;&lt;/span&gt;&amp;nbsp; &amp;nbsp; &amp;nbsp; &amp;nbsp; &amp;nbsp; &amp;nbsp; REFERENCES dbo.requests(id)&lt;/div&gt;&lt;div&gt;&lt;span&gt;&lt;/span&gt;&amp;nbsp; &amp;nbsp; &amp;nbsp; &amp;nbsp; &amp;nbsp; &amp;nbsp; ON DELETE CASCADE&lt;/div&gt;&lt;div&gt;&lt;span&gt;&lt;/span&gt;&amp;nbsp; &amp;nbsp; &amp;nbsp; &amp;nbsp; &amp;nbsp; &amp;nbsp; ON UPDATE CASCADE&lt;/div&gt;&lt;div&gt;);&lt;/div&gt;" style="rounded=0;whiteSpace=wrap;html=1;align=left;fontFamily=Courier New;verticalAlign=middle;fillColor=#008a00;fontColor=#ffffff;strokeColor=#005700;" parent="1" vertex="1">
                    <mxGeometry x="1080" y="440" width="320" height="320" as="geometry"/>
                </mxCell>
                <mxCell id="33" value="&lt;div&gt;INSERT INTO dbo.clients VALUES&lt;/div&gt;&lt;div&gt;&amp;nbsp; &amp;nbsp; ('testName1','LOC1'),&lt;/div&gt;&lt;div&gt;&amp;nbsp; &amp;nbsp; ('testName2','LOC2'),&lt;/div&gt;&lt;div&gt;&amp;nbsp; &amp;nbsp; ('testName3','LOC3');&lt;/div&gt;&lt;div&gt;&lt;br&gt;&lt;/div&gt;&lt;div&gt;INSERT INTO dbo.requests(client_id) VALUES&lt;/div&gt;&lt;div&gt;&amp;nbsp; &amp;nbsp; (2),(1),(3);&lt;/div&gt;&lt;div&gt;&lt;br&gt;&lt;/div&gt;&lt;div&gt;INSERT INTO dbo.requests_details(request_source, request_description, request_message, request_resolution, request_id) VALUES&amp;nbsp;&lt;/div&gt;&lt;div&gt;&lt;span&gt;&lt;/span&gt;&amp;nbsp; &amp;nbsp; ('source3','desc3','mess3','reso3',3),&lt;/div&gt;&lt;div&gt;&lt;span&gt;&lt;/span&gt;&amp;nbsp; &amp;nbsp; ('source1','desc1','mess1','reso1',1),&lt;/div&gt;&lt;div&gt;&lt;span&gt;&lt;/span&gt;&amp;nbsp; &amp;nbsp; ('source2','desc2','mess2','reso2',2);&lt;/div&gt;" style="rounded=0;whiteSpace=wrap;html=1;align=left;fontFamily=Courier New;verticalAlign=middle;fillColor=#0050ef;fontColor=#ffffff;strokeColor=#001DBC;" parent="1" vertex="1">
                    <mxGeometry x="1080" y="840" width="320" height="320" as="geometry"/>
                </mxCell>
                <mxCell id="34" value="DROP TABLE dbo.requests_details;" style="rounded=0;whiteSpace=wrap;html=1;align=left;fontFamily=Courier New;verticalAlign=middle;fillColor=#a20025;fontColor=#ffffff;strokeColor=#6F0000;" parent="1" vertex="1">
                    <mxGeometry x="1080" y="-120" width="320" height="320" as="geometry"/>
                </mxCell>
                <mxCell id="36" style="edgeStyle=none;html=1;fontFamily=Courier New;endArrow=none;endFill=0;" edge="1" parent="1" source="38" target="40">
                    <mxGeometry relative="1" as="geometry"/>
                </mxCell>
                <mxCell id="37" style="edgeStyle=none;html=1;fontFamily=Courier New;endArrow=none;endFill=0;" edge="1" parent="1" source="38" target="42">
                    <mxGeometry relative="1" as="geometry"/>
                </mxCell>
                <mxCell id="51" style="edgeStyle=none;html=1;endArrow=none;endFill=0;" edge="1" parent="1" source="38" target="46">
                    <mxGeometry relative="1" as="geometry"/>
                </mxCell>
                <mxCell id="38" value="Create Locations&amp;nbsp;Table" style="shape=step;perimeter=stepPerimeter;whiteSpace=wrap;html=1;fixedSize=1;fontFamily=Courier New;" vertex="1" parent="1">
                    <mxGeometry x="1720" y="280" width="160" height="80" as="geometry"/>
                </mxCell>
                <mxCell id="39" style="edgeStyle=none;html=1;fontFamily=Courier New;endArrow=none;endFill=0;" edge="1" parent="1" source="40" target="41">
                    <mxGeometry relative="1" as="geometry"/>
                </mxCell>
                <mxCell id="40" value="&lt;div&gt;CREATE TABLE locations (&lt;/div&gt;&lt;div&gt;&amp;nbsp; &amp;nbsp; id INT IDENTITY(1,1) PRIMARY KEY,&lt;/div&gt;&lt;div&gt;&lt;span&gt;&lt;/span&gt;&amp;nbsp; &amp;nbsp; city VARCHAR(128) NOT NULL,&lt;/div&gt;&lt;div&gt;&lt;span&gt;&lt;/span&gt;&amp;nbsp; &amp;nbsp; state_province VARCHAR(128),&lt;/div&gt;&lt;div&gt;&lt;span&gt;&lt;/span&gt;&amp;nbsp; &amp;nbsp; country VARCHAR(128) NOT NULL,&lt;/div&gt;&lt;div&gt;&lt;span&gt;&lt;/span&gt;&amp;nbsp; &amp;nbsp; CONSTRAINT unique_locations UNIQUE (city, state_province, country)&lt;/div&gt;&lt;div&gt;&lt;span&gt;&lt;/span&gt;&amp;nbsp; &amp;nbsp; -- Rows can share values, but not fully be duplicates of each other&lt;/div&gt;&lt;div&gt;);&lt;/div&gt;" style="rounded=0;whiteSpace=wrap;html=1;align=left;fontFamily=Courier New;verticalAlign=middle;fillColor=#008a00;fontColor=#ffffff;strokeColor=#005700;" vertex="1" parent="1">
                    <mxGeometry x="1480" y="440" width="640" height="320" as="geometry"/>
                </mxCell>
                <mxCell id="41" value="&lt;div&gt;INSERT INTO dbo.locations VALUES&lt;/div&gt;&lt;div&gt;&amp;nbsp; &amp;nbsp; ('Salem', 'Massachussets', 'USA'),&lt;/div&gt;&lt;div&gt;&amp;nbsp; &amp;nbsp; ('Salem', 'Oregon', 'USA');&lt;/div&gt;&lt;div&gt;&lt;br&gt;&lt;/div&gt;&lt;div&gt;SELECT * FROM dbo.locations;&lt;/div&gt;" style="rounded=0;whiteSpace=wrap;html=1;align=left;fontFamily=Courier New;verticalAlign=middle;fillColor=#0050ef;fontColor=#ffffff;strokeColor=#001DBC;" vertex="1" parent="1">
                    <mxGeometry x="1480" y="840" width="640" height="320" as="geometry"/>
                </mxCell>
                <mxCell id="42" value="DROP TABLE dbo.locations;" style="rounded=0;whiteSpace=wrap;html=1;align=left;fontFamily=Courier New;verticalAlign=middle;fillColor=#a20025;fontColor=#ffffff;strokeColor=#6F0000;" vertex="1" parent="1">
                    <mxGeometry x="1480" y="-120" width="640" height="320" as="geometry"/>
                </mxCell>
                <mxCell id="44" style="edgeStyle=none;html=1;fontFamily=Courier New;endArrow=none;endFill=0;" edge="1" parent="1" source="46" target="48">
                    <mxGeometry relative="1" as="geometry"/>
                </mxCell>
                <mxCell id="45" style="edgeStyle=none;html=1;fontFamily=Courier New;endArrow=none;endFill=0;" edge="1" parent="1" source="46" target="50">
                    <mxGeometry relative="1" as="geometry"/>
                </mxCell>
                <mxCell id="46" value="Create&lt;br&gt;Users Table" style="shape=step;perimeter=stepPerimeter;whiteSpace=wrap;html=1;fixedSize=1;fontFamily=Courier New;" vertex="1" parent="1">
                    <mxGeometry x="2440" y="280" width="160" height="80" as="geometry"/>
                </mxCell>
                <mxCell id="47" style="edgeStyle=none;html=1;fontFamily=Courier New;endArrow=none;endFill=0;" edge="1" parent="1" source="48" target="49">
                    <mxGeometry relative="1" as="geometry"/>
                </mxCell>
                <mxCell id="48" value="&lt;div&gt;CREATE TABLE users (&lt;/div&gt;&lt;div&gt;&lt;span&gt;&lt;/span&gt;&amp;nbsp; &amp;nbsp; id INT IDENTITY(1,1) PRIMARY KEY,&lt;/div&gt;&amp;nbsp; &amp;nbsp;&amp;nbsp;&lt;span&gt;first_name VARCHAR(128) NOT NULL,&lt;/span&gt;&lt;br&gt;&amp;nbsp; &amp;nbsp;&amp;nbsp;&lt;span&gt;middle_name VARCHAR(128),&lt;br&gt;&lt;/span&gt;&amp;nbsp; &amp;nbsp;&amp;nbsp;&lt;span&gt;last_name VARCHAR(128) NOT NULL,&lt;/span&gt;&lt;br&gt;&amp;nbsp; &amp;nbsp;&amp;nbsp;&lt;span&gt;employee_id VARCHAR(128) UNIQUE NOT NULL, -- Data type should be changed based on the way the client formats their employee id's&lt;/span&gt;&lt;br&gt;&amp;nbsp; &amp;nbsp;&amp;nbsp;&lt;span&gt;user_type INT NOT NULL, -- FK to user types table&lt;/span&gt;&lt;br&gt;&lt;div&gt;);&lt;/div&gt;" style="rounded=0;whiteSpace=wrap;html=1;align=left;fontFamily=Courier New;verticalAlign=middle;fillColor=#008a00;fontColor=#ffffff;strokeColor=#005700;" vertex="1" parent="1">
                    <mxGeometry x="2200" y="440" width="640" height="320" as="geometry"/>
                </mxCell>
                <mxCell id="49" value="&lt;div&gt;INSERT INTO dbo.users VALUES&lt;/div&gt;&lt;div&gt;&amp;nbsp; &amp;nbsp; ('first1','middle1','last1','empid1',1),&lt;/div&gt;&lt;div&gt;&amp;nbsp; &amp;nbsp; ('first2','middle2','last2','empid2',2),&lt;/div&gt;&lt;div&gt;&amp;nbsp; &amp;nbsp; ('first1','middle1','last1','empid3',1);&lt;/div&gt;&lt;div&gt;&lt;br&gt;&lt;/div&gt;&lt;div&gt;SELECT * FROM dbo.users;&lt;/div&gt;" style="rounded=0;whiteSpace=wrap;html=1;align=left;fontFamily=Courier New;verticalAlign=middle;fillColor=#0050ef;fontColor=#ffffff;strokeColor=#001DBC;" vertex="1" parent="1">
                    <mxGeometry x="2200" y="840" width="640" height="320" as="geometry"/>
                </mxCell>
                <mxCell id="50" value="DROP TABLE dbo.users;" style="rounded=0;whiteSpace=wrap;html=1;align=left;fontFamily=Courier New;verticalAlign=middle;fillColor=#a20025;fontColor=#ffffff;strokeColor=#6F0000;" vertex="1" parent="1">
                    <mxGeometry x="2200" y="-120" width="640" height="320" as="geometry"/>
                </mxCell>
                <mxCell id="61" style="edgeStyle=none;html=1;endArrow=none;endFill=0;" edge="1" parent="1" source="52" target="46">
                    <mxGeometry relative="1" as="geometry"/>
                </mxCell>
                <mxCell id="52" value="FK&amp;nbsp;Client Table&lt;br&gt;to Location Table" style="shape=step;perimeter=stepPerimeter;whiteSpace=wrap;html=1;fixedSize=1;fontFamily=Courier New;" vertex="1" parent="1">
                    <mxGeometry x="3160" y="280" width="160" height="80" as="geometry"/>
                </mxCell>
                <mxCell id="53" style="edgeStyle=none;html=1;fontFamily=Courier New;endArrow=none;endFill=0;" edge="1" parent="1" source="52" target="57">
                    <mxGeometry relative="1" as="geometry">
                        <mxPoint x="3240" y="360" as="sourcePoint"/>
                    </mxGeometry>
                </mxCell>
                <mxCell id="54" style="edgeStyle=none;html=1;fontFamily=Courier New;endArrow=none;endFill=0;" edge="1" parent="1" source="52" target="59">
                    <mxGeometry relative="1" as="geometry">
                        <mxPoint x="3240" y="280" as="sourcePoint"/>
                    </mxGeometry>
                </mxCell>
                <mxCell id="56" style="edgeStyle=none;html=1;fontFamily=Courier New;endArrow=none;endFill=0;" edge="1" parent="1" source="57" target="58">
                    <mxGeometry relative="1" as="geometry"/>
                </mxCell>
                <mxCell id="57" value="&lt;div&gt;ALTER TABLE dbo.clients&lt;/div&gt;&lt;div&gt;&lt;span&gt;&lt;/span&gt;&amp;nbsp; &amp;nbsp; DROP COLUMN location;&lt;/div&gt;&lt;div&gt;&lt;br&gt;&lt;/div&gt;&lt;div&gt;ALTER TABLE dbo.clients&lt;/div&gt;&lt;div&gt;&lt;span&gt;&lt;/span&gt;&amp;nbsp; &amp;nbsp; ADD location_id INT NOT NULL;&lt;/div&gt;&lt;div&gt;&lt;br&gt;&lt;/div&gt;&lt;div&gt;ALTER TABLE dbo.clients&lt;/div&gt;&lt;div&gt;&lt;span&gt;&lt;/span&gt;&amp;nbsp; &amp;nbsp; ADD CONSTRAINT fk_clients_locations&lt;/div&gt;&lt;div&gt;&lt;span&gt;&lt;/span&gt;&amp;nbsp; &amp;nbsp; FOREIGN KEY (location_id)&lt;/div&gt;&lt;div&gt;&lt;span&gt;&lt;/span&gt;&amp;nbsp; &amp;nbsp; &amp;nbsp; &amp;nbsp; REFERENCES dbo.locations(id)&lt;/div&gt;&lt;div&gt;&lt;span&gt;&lt;/span&gt;&amp;nbsp; &amp;nbsp; &amp;nbsp; &amp;nbsp; ON DELETE CASCADE&lt;/div&gt;&lt;div&gt;&lt;span&gt;&lt;/span&gt;&amp;nbsp; &amp;nbsp; &amp;nbsp; &amp;nbsp; ON UPDATE CASCADE;&lt;/div&gt;" style="rounded=0;whiteSpace=wrap;html=1;align=left;fontFamily=Courier New;verticalAlign=middle;fillColor=#008a00;fontColor=#ffffff;strokeColor=#005700;" vertex="1" parent="1">
                    <mxGeometry x="2920" y="440" width="640" height="320" as="geometry"/>
                </mxCell>
                <mxCell id="58" value="&lt;div&gt;INSERT INTO dbo.locations VALUES&lt;/div&gt;&lt;div&gt;&amp;nbsp; &amp;nbsp; ('Salem', 'Massachussets', 'USA'),&lt;/div&gt;&lt;div&gt;&amp;nbsp; &amp;nbsp; ('Salem', 'Oregon', 'USA');&lt;/div&gt;&lt;div&gt;&lt;br&gt;&lt;/div&gt;&lt;div&gt;INSERT INTO dbo.clients VALUES&lt;/div&gt;&lt;div&gt;&amp;nbsp; &amp;nbsp; ('testName1',2),&lt;/div&gt;&lt;div&gt;&amp;nbsp; &amp;nbsp; ('testName2',1);&lt;/div&gt;&lt;div&gt;&lt;br&gt;&lt;/div&gt;&lt;div&gt;SELECT C.name AS Name, L.city + ', ' + L.state_province AS 'City, State'&amp;nbsp;&lt;/div&gt;&lt;div&gt;FROM clients C&lt;/div&gt;&lt;div&gt;JOIN locations L ON C.location_id=L.id;&lt;/div&gt;" style="rounded=0;whiteSpace=wrap;html=1;align=left;fontFamily=Courier New;verticalAlign=middle;fillColor=#0050ef;fontColor=#ffffff;strokeColor=#001DBC;" vertex="1" parent="1">
                    <mxGeometry x="2920" y="840" width="640" height="320" as="geometry"/>
                </mxCell>
                <mxCell id="59" value="&lt;div&gt;ALTER TABLE dbo.clients&lt;/div&gt;&lt;div&gt;&lt;span&gt;&lt;/span&gt;&amp;nbsp; &amp;nbsp; DROP CONSTRAINT fk_clients_locations;&lt;/div&gt;&lt;div&gt;&lt;br&gt;&lt;/div&gt;&lt;div&gt;ALTER TABLE dbo.clients&lt;/div&gt;&lt;div&gt;&lt;span&gt;&lt;/span&gt;&amp;nbsp; &amp;nbsp; DROP COLUMN location_id;&lt;/div&gt;&lt;div&gt;&lt;br&gt;&lt;/div&gt;&lt;div&gt;ALTER TABLE dbo.clients&lt;/div&gt;&lt;div&gt;&lt;span&gt;&lt;/span&gt;&amp;nbsp; &amp;nbsp; ADD location VARCHAR(4) NOT NULL;&lt;/div&gt;" style="rounded=0;whiteSpace=wrap;html=1;align=left;fontFamily=Courier New;verticalAlign=middle;fillColor=#a20025;fontColor=#ffffff;strokeColor=#6F0000;" vertex="1" parent="1">
                    <mxGeometry x="2920" y="-120" width="640" height="320" as="geometry"/>
                </mxCell>
            </root>
        </mxGraphModel>
    </diagram>
</mxfile>